<svg width="793" height="129" viewBox="0 0 793 129" fill="none" xmlns="http://www.w3.org/2000/svg">
<path d="M0.231995 84V48.96H5.41599V79.248H20.728V84H0.231995Z" fill="white"/>
<path d="M45 30C45 13.4315 58.4314 0 75 0H716C732.569 0 746 13.4315 746 30H45Z" fill="#D9D9D9"/>
<path d="M45 88V30H75V88H45Z" fill="#D9D9D9"/>
<path d="M716 88V30H746V88H716Z" fill="#D9D9D9"/>
<path d="M381 88V30H411V88H381Z" fill="#D9D9D9"/>
<path d="M24 94C24 90.6863 26.6863 88 30 88H89C92.3137 88 95 90.6863 95 94V123C95 126.314 92.3137 129 89 129H30C26.6863 129 24 126.314 24 123V94Z" fill="#71717A"/>
<path d="M360 94C360 90.6863 362.686 88 366 88H425C428.314 88 431 90.6863 431 94V123C431 126.314 428.314 129 425 129H366C362.686 129 360 126.314 360 123V94Z" fill="#71717A"/>
<path d="M695 94C695 90.6863 697.686 88 701 88H760C763.314 88 766 90.6863 766 94V123C766 126.314 763.314 129 760 129H701C697.686 129 695 126.314 695 123V94Z" fill="#71717A"/>
<path d="M770.032 84V48.96H781.024C783.232 48.96 785.152 49.392 786.784 50.256C788.416 51.088 789.68 52.272 790.576 53.808C791.504 55.344 791.968 57.152 791.968 59.232C791.968 61.568 791.36 63.6 790.144 65.328C788.96 67.024 787.344 68.224 785.296 68.928L792.448 84H786.544L780.16 69.6H775.216V84H770.032ZM775.216 65.04H781.024C782.752 65.04 784.128 64.528 785.152 63.504C786.176 62.448 786.688 61.056 786.688 59.328C786.688 57.536 786.176 56.128 785.152 55.104C784.128 54.08 782.752 53.568 781.024 53.568H775.216V65.04Z" fill="white"/>
</svg>
